<svg xmlns="http://www.w3.org/2000/svg" width="30" height="30" viewBox="0 0 30 30"><path d="M332.353,674.558q-.248.04-.5.075.25-.034.5-.075Zm0,0" transform="translate(-314.883 -644.816)" fill="#fff"/><path d="M340.577,673.683l-.237.042.237-.042Zm0,0" transform="translate(-322.834 -644.009)" fill="#fff"/><path d="M319.193,676.23q-.29.033-.584.058.293-.025.584-.058Zm0,0" transform="translate(-302.421 -646.359)" fill="#fff"/><path d="M327.725,675.628l-.28.035.28-.035Zm0,0" transform="translate(-310.7 -645.803)" fill="#fff"/><path d="M347.874,672.3l-.21.044.21-.044Zm0,0" transform="translate(-329.726 -642.733)" fill="#fff"/><path d="M365.653,668l-.169.047.169-.047Zm0,0" transform="translate(-346.498 -638.77)" fill="#fff"/><path d="M360.243,669.433l-.184.048.184-.048Zm0,0" transform="translate(-341.392 -640.089)" fill="#fff"/><path d="M353.262,671.144l-.2.044.2-.044Zm0,0" transform="translate(-334.81 -641.667)" fill="#fff"/><path d="M314.794,676.98l-.314.024.314-.024Zm0,0" transform="translate(-298.497 -647.051)" fill="#fff"/><path d="M306.513,677.32q-.31.02-.622.031.312-.01.622-.031Zm0,0" transform="translate(-290.45 -647.364)" fill="#fff"/><path d="M301.834,677.726l-.33.008.33-.008Zm0,0" transform="translate(-286.281 -647.739)" fill="#fff"/><path d="M71,180.89a15,15,0,1,0-15,15c.088,0,.176,0,.264,0V184.21H53.041v-3.756h3.223V177.69c0-3.205,1.957-4.95,4.816-4.95a26.518,26.518,0,0,1,2.889.148v3.35H62c-1.555,0-1.857.739-1.857,1.824v2.392H63.86l-.485,3.756H60.14v11.1A15.008,15.008,0,0,0,71,180.89Zm0,0" transform="translate(-41 -165.89)" fill="#fff"/></svg>