<svg xmlns="http://www.w3.org/2000/svg" width="30" height="30" viewBox="0 0 30 30"><path d="M639.742,337.871A2.871,2.871,0,1,1,636.871,335a2.871,2.871,0,0,1,2.871,2.871Zm0,0" transform="translate(-621.871 -322.871)" fill="#fff"/><path d="M576.26,265.469a2.852,2.852,0,0,0-1.635-1.635,4.766,4.766,0,0,0-1.6-.3c-.908-.041-1.181-.05-3.481-.05s-2.572.009-3.481.05a4.768,4.768,0,0,0-1.6.3,2.853,2.853,0,0,0-1.635,1.635,4.766,4.766,0,0,0-.3,1.6c-.041.908-.05,1.181-.05,3.481s.009,2.572.05,3.481a4.765,4.765,0,0,0,.3,1.6,2.852,2.852,0,0,0,1.635,1.635,4.76,4.76,0,0,0,1.6.3c.908.041,1.18.05,3.48.05s2.573-.009,3.481-.05a4.761,4.761,0,0,0,1.6-.3,2.852,2.852,0,0,0,1.635-1.635,4.77,4.77,0,0,0,.3-1.6c.041-.908.05-1.181.05-3.481s-.009-2.572-.05-3.481a4.759,4.759,0,0,0-.3-1.6Zm-6.714,9.5a4.423,4.423,0,1,1,4.423-4.423,4.423,4.423,0,0,1-4.423,4.423Zm4.6-7.987a1.034,1.034,0,1,1,1.034-1.034,1.034,1.034,0,0,1-1.034,1.034Zm0,0" transform="translate(-554.546 -255.549)" fill="#fff"/><path d="M442,128a15,15,0,1,0,15,15,15,15,0,0,0-15-15Zm8.561,18.551a6.319,6.319,0,0,1-.4,2.091,4.4,4.4,0,0,1-2.519,2.519,6.324,6.324,0,0,1-2.091.4c-.918.042-1.212.052-3.551.052s-2.633-.01-3.551-.052a6.323,6.323,0,0,1-2.091-.4,4.4,4.4,0,0,1-2.519-2.519,6.317,6.317,0,0,1-.4-2.091c-.042-.919-.052-1.212-.052-3.551s.01-2.633.052-3.551a6.319,6.319,0,0,1,.4-2.091,4.407,4.407,0,0,1,2.519-2.519,6.325,6.325,0,0,1,2.091-.4c.918-.042,1.212-.052,3.551-.052s2.633.01,3.551.052a6.327,6.327,0,0,1,2.091.4,4.406,4.406,0,0,1,2.519,2.519,6.318,6.318,0,0,1,.4,2.091c.042.918.052,1.212.052,3.551s-.01,2.633-.052,3.551Zm0,0" transform="translate(-427 -128)" fill="#fff"/></svg>