<svg xmlns="http://www.w3.org/2000/svg" width="157.217" height="45.597" viewBox="0 0 157.217 45.597"><rect width="157.217" height="45.597"/><path d="M700.557,113.6c-4.751,0-7.89,3.118-7.89,6.963s2.471,6.965,7.89,6.965,7.9-3.118,7.9-6.965-3.141-6.963-7.9-6.963m0,13.119c-3.918,0-5.7-2.74-5.7-6.117s2.267-6.117,5.7-6.117,5.707,2.739,5.707,6.117-1.781,6.117-5.707,6.117" transform="translate(-589.457 -101.676)" fill="#fff"/><path d="M444.888,115.267l0,10.341-9.626-10.341h-1.808v13.42H434.5V117.931l10.015,10.757h1.409v-13.42Z" transform="translate(-369.559 -103.088)" fill="#fff"/><path d="M818.154,115.267l0,10.341-9.632-10.341h-1.8v13.42h1.045V117.931l10.014,10.757h1.411v-13.42Z" transform="translate(-686.215 -103.088)" fill="#fff"/><rect width="2.382" height="13.42" transform="translate(58.811 12.178)" fill="#fff"/><path d="M625.138,115.267H611.769v1.083l5.492-.082v12.418h2.382V116.269l5.5.082Z" transform="translate(-520.828 -103.088)" fill="#fff"/><path d="M900.906,113.56a1.116,1.116,0,1,0,1.112,1.115,1.113,1.113,0,0,0-1.112-1.115m0,2a.878.878,0,1,1,.835-.88.86.86,0,0,1-.835.88m.491-1.15c0-.257-.163-.366-.48-.366h-.5v1.276h.222v-.541h.188l.325.541h.26l-.35-.546a.35.35,0,0,0,.331-.365m-.754.188v-.367h.247c.129,0,.284.021.284.173,0,.175-.146.194-.3.194Z" transform="translate(-765.166 -101.64)" fill="#fff"/><path d="M185.23,128.566V115.125h9.9v1.1l-7.556-.145v4.914l5.882,0v.812h-5.882v5.81l7.836-.111v1.067Z" transform="translate(-158.979 -102.968)" fill="#fff"/><path d="M267.671,114.988l6.823,11.565,6.061-11.558h2.467V128.45h-2.472l-.009-11.414-5.977,11.414h-1.716l-6.373-10.594.022,10.594h-1.048V114.995Z" transform="translate(-227.03 -102.851)" fill="#fff"/><path d="M83.988,112.239l-7.522-6.9c.292-.019.6-.04.886-.071,1.718-.23,5.172-1.179,5.4-4.742.1-4.646-7.319-4.642-8.911-4.642H67.157v16.373h2.778v-6.827H73.5l7.566,6.808ZM69.935,96.685h2.487c1.713,0,8.066-.071,8.066,3.8,0,3.507-4.4,4.136-6.394,4.136H69.935Z" transform="translate(-58.813 -86.646)" fill="#fff"/><path d="M537.7,113.764a16.333,16.333,0,0,0-3.244-.312c-5.163,0-8.244,3.158-8.244,7s2.465,6.961,7.887,6.961a8.531,8.531,0,0,0,5.673-1.762v-4.958h-3.413l1.083.977v4.02a5.806,5.806,0,0,1-3.343.918c-3.913,0-5.7-2.743-5.7-6.119a5.875,5.875,0,0,1,6.064-6.142,9.182,9.182,0,0,1,3.239.484Z" transform="translate(-448.244 -101.548)" fill="#fff"/><rect width="8.154" height="33.22" transform="translate(140.93 8.139)" fill="#e52713"/><path d="M105.581,243.527h4.191v.888h-3.2v1.47h2.835v.888h-2.835v1.517h3.238v.888h-4.231Z" transform="translate(-91.41 -211.895)" fill="#fff"/><path d="M150.581,247.9l.6-.71a2.621,2.621,0,0,0,1.785.735c.614,0,1-.291,1-.71V247.2c0-.4-.226-.621-1.275-.864-1.2-.291-1.882-.646-1.882-1.688v-.017a1.729,1.729,0,0,1,1.93-1.639,3.134,3.134,0,0,1,2.051.71l-.533.752a2.564,2.564,0,0,0-1.534-.581c-.581,0-.92.3-.92.669v.017c0,.436.258.63,1.348.888,1.2.29,1.809.719,1.809,1.655v.016c0,1.058-.833,1.689-2.019,1.689a3.482,3.482,0,0,1-2.358-.9" transform="translate(-129.585 -211.444)" fill="#fff"/><path d="M197.323,244.447h-1.792v-.92h4.586v.92h-1.792v4.731h-1Z" transform="translate(-167.718 -211.895)" fill="#fff"/><rect width="1.074" height="1.114" transform="translate(32.465 36.168)" fill="#fff"/><path d="M278.977,243.527h.92l3.028,3.908v-3.908h.977v5.652h-.833l-3.116-4.021v4.021h-.977Z" transform="translate(-238.508 -211.895)" fill="#fff"/><path d="M332.87,243.527h4.191v.888h-3.2v1.47H336.7v.888h-2.835v1.517H337.1v.888H332.87Z" transform="translate(-284.228 -211.895)" fill="#fff"/><path d="M377.5,243.433h1.074l1.348,4.191,1.388-4.208h.84l1.389,4.208,1.348-4.191h1.042l-1.962,5.692H383.1l-1.39-4.061-1.388,4.061h-.856Z" transform="translate(-322.087 -211.802)" fill="#fff"/><path d="M477.839,246.952l-2.244-3.423h1.178l1.575,2.495,1.6-2.495h1.138l-2.246,3.4v2.253h-1Z" transform="translate(-405.306 -211.898)" fill="#fff"/><path d="M529.4,245.826v-.017a1.936,1.936,0,0,0-1.922-2.01,1.909,1.909,0,0,0-1.905,1.994v.016a1.93,1.93,0,0,0,1.921,2,1.9,1.9,0,0,0,1.906-1.986m-4.869,0v-.017a2.956,2.956,0,0,1,5.911-.016v.016a2.956,2.956,0,0,1-5.911.017" transform="translate(-446.822 -211.353)" fill="#fff"/><path d="M585.718,246.328c.71,0,1.163-.371,1.163-.944v-.017c0-.606-.436-.937-1.171-.937h-1.446v1.9Zm-2.447-2.8h2.519a2.279,2.279,0,0,1,1.631.565,1.709,1.709,0,0,1,.469,1.22v.017a1.7,1.7,0,0,1-1.341,1.712l1.526,2.139H586.9l-1.388-1.97h-1.244v1.97h-.993Z" transform="translate(-496.652 -211.896)" fill="#fff"/><path d="M633.6,243.527h.993v2.843l2.689-2.843H638.5l-2.358,2.43,2.464,3.222H637.4l-1.93-2.543-.881.9v1.639H633.6Z" transform="translate(-539.344 -211.895)" fill="#fff"/><path d="M709.7,244.268l-1.017.282-.21-.807,1.526-.485h.686v5.693H709.7Z" transform="translate(-602.864 -211.669)" fill="#fff"/><path d="M746.432,244.8v-.016a1.068,1.068,0,0,0-1.18-1.042,1.037,1.037,0,0,0-1.122,1.049v.017a1.032,1.032,0,0,0,1.154,1.009,1.045,1.045,0,0,0,1.147-1.018m.04,1.244a1.649,1.649,0,0,1-1.332.606,1.792,1.792,0,0,1-2-1.793v-.016a1.966,1.966,0,0,1,2.108-1.954,2.061,2.061,0,0,1,1.575.6,2.862,2.862,0,0,1,.677,2.156v.017c0,1.816-.9,3.076-2.422,3.076a2.685,2.685,0,0,1-1.809-.678l.541-.759a1.924,1.924,0,0,0,1.292.533c1,0,1.365-1.033,1.373-1.784" transform="translate(-632.273 -211.352)" fill="#fff"/><path d="M788.512,248.283l.695-.646a1.844,1.844,0,0,0,1.485.743.885.885,0,0,0,.977-.856v-.015c0-.558-.509-.873-1.3-.873h-.46l-.162-.621,1.526-1.623h-2.447v-.864h3.739v.743l-1.574,1.615c.856.1,1.663.54,1.663,1.582v.017a1.809,1.809,0,0,1-1.978,1.792,2.68,2.68,0,0,1-2.164-.993" transform="translate(-670.766 -211.896)" fill="#fff"/><path d="M836.246,244.4H833.4v-.872h3.973v.75l-2.543,4.9h-1.123Z" transform="translate(-708.849 -211.898)" fill="#fff"/></svg>