<svg xmlns="http://www.w3.org/2000/svg" width="30" height="30" viewBox="0 0 30 30"><path d="M-328.887,269.368l6.458-3.719-6.458-3.719Zm0,0" transform="translate(341.193 -250.648)" fill="#fff"/><path d="M-538,53.89a15,15,0,0,0-15,15,15,15,0,0,0,15,15,15,15,0,0,0,15-15,15,15,0,0,0-15-15Zm9.373,15.015a24.759,24.759,0,0,1-.386,4.509,2.349,2.349,0,0,1-1.652,1.652,57.011,57.011,0,0,1-7.335.386,54.969,54.969,0,0,1-7.335-.4,2.349,2.349,0,0,1-1.652-1.652,24.653,24.653,0,0,1-.386-4.509,24.745,24.745,0,0,1,.386-4.509,2.4,2.4,0,0,1,1.652-1.668A57.011,57.011,0,0,1-538,62.327a54.852,54.852,0,0,1,7.335.4,2.349,2.349,0,0,1,1.652,1.652,23.5,23.5,0,0,1,.386,4.524Zm0,0" transform="translate(553 -53.89)" fill="#fff"/></svg>