<svg xmlns="http://www.w3.org/2000/svg" width="195.443" height="46.132" viewBox="0 0 195.443 46.132"><g transform="translate(-67.157 -88.626)"><path d="M703.623,113.6c-6.6,0-10.956,4.33-10.956,9.67s3.432,9.672,10.956,9.672,10.964-4.33,10.964-9.672-4.361-9.67-10.964-9.67m0,18.218c-5.44,0-7.912-3.805-7.912-8.5s3.148-8.494,7.912-8.494,7.926,3.8,7.926,8.494-2.473,8.5-7.926,8.5" transform="translate(-493.771 -19.716)"/><path d="M449.331,115.267l0,14.36-13.367-14.36h-2.51V133.9h1.453V118.966L448.817,133.9h1.956V115.267Z" transform="translate(-289.153 -21.03)"/><path d="M822.6,115.267l.006,14.36-13.375-14.36h-2.506V133.9h1.451V118.966L822.08,133.9h1.959V115.267Z" transform="translate(-583.806 -21.03)"/><rect width="3.308" height="18.636" transform="translate(137.239 94.236)"/><path d="M630.334,115.267l-18.565,0v1.5l7.626-.114V133.9H622.7V116.658l7.631.114Z" transform="translate(-429.911 -21.03)"/><path d="M901.341,113.56a1.55,1.55,0,1,0,1.544,1.548,1.546,1.546,0,0,0-1.544-1.548m0,2.771a1.219,1.219,0,1,1,1.159-1.223,1.194,1.194,0,0,1-1.159,1.223m.682-1.6c0-.357-.227-.508-.667-.508h-.688V116h.309v-.752h.261l.451.752h.361l-.486-.758a.487.487,0,0,0,.46-.506m-1.047.261v-.509h.343c.179,0,.394.029.394.241,0,.242-.2.269-.417.269Z" transform="translate(-657.27 -19.683)"/><path d="M185.23,133.79V115.125h13.755v1.524l-10.493-.2v6.823l8.168,0V124.4h-8.168v8.068l10.882-.154v1.482Z" transform="translate(-93.206 -20.918)"/><path d="M268.535,114.988l9.476,16.06L286.427,115h3.426v18.686h-3.433l-.012-15.85-8.3,15.85h-2.384l-8.85-14.712.031,14.712h-1.456V115Z" transform="translate(-156.528 -20.81)"/><path d="M90.529,118.6l-10.445-9.579c.406-.026.834-.056,1.23-.1,2.385-.32,7.182-1.638,7.5-6.586.133-6.451-10.164-6.447-12.375-6.447H67.157v22.736h3.858v-9.48h4.945L86.466,118.6ZM71.015,97h3.453c2.379,0,11.2-.1,11.2,5.281,0,4.871-6.116,5.744-8.88,5.744H71.015Z" transform="translate(0 -5.73)"/><path d="M542.162,113.886a22.682,22.682,0,0,0-4.5-.434c-7.169,0-11.448,4.386-11.448,9.719s3.422,9.667,10.953,9.667a11.847,11.847,0,0,0,7.878-2.447v-6.885H540.3l1.5,1.357v5.582a8.062,8.062,0,0,1-4.642,1.275c-5.434,0-7.919-3.808-7.919-8.5a8.158,8.158,0,0,1,8.421-8.529,12.751,12.751,0,0,1,4.5.672Z" transform="translate(-362.371 -19.597)"/><rect width="11.323" height="46.132" transform="translate(251.276 88.626)" fill="#e52713"/><path d="M105.581,243.527h5.82v1.233h-4.441V246.8H110.9v1.233h-3.937v2.107h4.5v1.233h-5.876Z" transform="translate(-30.331 -122.277)"/><path d="M150.581,249.811l.829-.987a3.64,3.64,0,0,0,2.479,1.02c.852,0,1.389-.4,1.389-.987v-.023c0-.56-.313-.863-1.771-1.2-1.672-.4-2.614-.9-2.614-2.343v-.023a2.4,2.4,0,0,1,2.68-2.275,4.353,4.353,0,0,1,2.848.986l-.739,1.044a3.56,3.56,0,0,0-2.131-.807c-.807,0-1.278.414-1.278.929v.023c0,.605.358.875,1.873,1.233,1.66.4,2.512,1,2.512,2.3v.022c0,1.47-1.156,2.345-2.8,2.345a4.835,4.835,0,0,1-3.274-1.257" transform="translate(-65.854 -121.857)"/><path d="M198.02,244.8h-2.489v-1.278H201.9V244.8h-2.489v6.57H198.02Z" transform="translate(-101.337 -122.277)"/><rect width="1.491" height="1.547" transform="translate(100.654 127.55)"/><path d="M278.977,243.527h1.278l4.205,5.426v-5.426h1.357v7.848h-1.156l-4.327-5.584v5.584h-1.357Z" transform="translate(-167.208 -122.277)"/><path d="M332.87,243.527h5.82v1.233h-4.441V246.8h3.937v1.233h-3.937v2.107h4.5v1.233H332.87Z" transform="translate(-209.751 -122.277)"/><path d="M377.5,243.44h1.491l1.873,5.82,1.928-5.843h1.167l1.928,5.843,1.873-5.82H389.2l-2.725,7.9h-1.2l-1.93-5.639-1.928,5.639h-1.189Z" transform="translate(-244.98 -122.19)"/><path d="M478.711,248.283l-3.117-4.753h1.636l2.188,3.464,2.22-3.464h1.581l-3.118,4.719v3.129h-1.389Z" transform="translate(-322.416 -122.279)"/><path d="M531.294,246.969v-.023a2.689,2.689,0,0,0-2.669-2.791,2.651,2.651,0,0,0-2.646,2.769v.022a2.68,2.68,0,0,0,2.668,2.782,2.643,2.643,0,0,0,2.647-2.759m-6.762,0v-.023a4.1,4.1,0,0,1,8.208-.022v.022a4.1,4.1,0,0,1-8.208.023" transform="translate(-361.047 -121.772)"/><path d="M586.669,247.417c.987,0,1.615-.516,1.615-1.311v-.023c0-.841-.605-1.3-1.626-1.3H584.65v2.635Zm-3.4-3.89h3.5a3.164,3.164,0,0,1,2.265.784,2.373,2.373,0,0,1,.651,1.694v.023a2.359,2.359,0,0,1-1.862,2.377l2.12,2.97h-1.638l-1.928-2.736H584.65v2.736h-1.379Z" transform="translate(-407.415 -122.277)"/><path d="M633.6,243.527h1.379v3.947l3.734-3.947h1.7l-3.274,3.375,3.421,4.474h-1.683l-2.68-3.532-1.223,1.257v2.275H633.6Z" transform="translate(-447.141 -122.277)"/><path d="M710.176,244.661l-1.413.392-.292-1.121,2.12-.673h.953v7.906h-1.368Z" transform="translate(-506.247 -122.066)"/><path d="M747.713,245.543v-.022a1.484,1.484,0,0,0-1.638-1.447,1.44,1.44,0,0,0-1.557,1.457v.023a1.434,1.434,0,0,0,1.6,1.4,1.451,1.451,0,0,0,1.593-1.414m.056,1.727a2.29,2.29,0,0,1-1.849.841,2.489,2.489,0,0,1-2.782-2.49V245.6a2.731,2.731,0,0,1,2.927-2.714,2.862,2.862,0,0,1,2.188.83,3.975,3.975,0,0,1,.94,2.993v.023c0,2.522-1.244,4.272-3.364,4.272a3.728,3.728,0,0,1-2.512-.942l.752-1.055a2.672,2.672,0,0,0,1.794.739c1.391,0,1.9-1.434,1.906-2.478" transform="translate(-533.612 -121.771)"/><path d="M788.512,250.131l.965-.9a2.561,2.561,0,0,0,2.063,1.031,1.229,1.229,0,0,0,1.357-1.189v-.021c0-.775-.707-1.212-1.8-1.212h-.639l-.225-.863,2.12-2.254h-3.4v-1.2h5.192v1.031l-2.186,2.243c1.189.145,2.31.75,2.31,2.2v.023a2.513,2.513,0,0,1-2.746,2.489,3.721,3.721,0,0,1-3.006-1.378" transform="translate(-569.43 -122.277)"/><path d="M837.351,244.74H833.4v-1.21h5.517v1.042l-3.532,6.806H833.83Z" transform="translate(-604.867 -122.279)"/></g></svg>