<?xml version="1.0" encoding="utf-8"?>
<svg xmlns="http://www.w3.org/2000/svg" width="40" height="40" viewBox="0 0 40 40">
    <g transform="translate(-1166.661 -5345)">
        <path d="M332.519,674.558q-.331.054-.664.1.333-.045.664-.1Zm0,0" transform="translate(857.436 4710.098)" fill="#fff"></path>
        <path d="M340.656,673.683l-.316.055.316-.055Zm0,0" transform="translate(849.662 4710.882)" fill="#fff"></path>
        <path d="M319.387,676.23q-.387.044-.778.077.391-.033.778-.077Zm0,0" transform="translate(869.636 4708.598)" fill="#fff"></path>
        <path d="M327.818,675.628c-.124.017-.249.032-.373.047.124-.015.249-.03.373-.047Zm0,0" transform="translate(861.543 4709.138)" fill="#fff"></path>
        <path d="M347.943,672.3l-.279.059.279-.059Zm0,0" transform="translate(842.914 4712.122)" fill="#fff"></path>
        <path d="M365.709,668l-.225.063.225-.063Zm0,0" transform="translate(826.492 4715.975)" fill="#fff"></path>
        <path d="M360.3,669.433l-.246.064.246-.064Zm0,0" transform="translate(831.491 4714.692)" fill="#fff"></path>
        <path d="M353.327,671.144l-.261.058.261-.058Zm0,0" transform="translate(837.936 4713.158)" fill="#fff"></path>
        <path d="M314.9,676.98q-.209.017-.418.031.21-.014.418-.031Zm0,0" transform="translate(873.492 4707.926)" fill="#fff"></path>
        <path d="M306.721,677.32q-.413.027-.83.041.416-.014.83-.041Zm0,0" transform="translate(881.358 4707.621)" fill="#fff"></path>
        <path d="M301.943,677.726q-.219.007-.439.011.22,0,.439-.011Zm0,0" transform="translate(885.454 4707.257)" fill="#fff"></path>
        <path d="M81,185.89a20,20,0,1,0-20,20c.117,0,.234,0,.352,0V190.316h-4.3v-5.008h4.3v-3.685c0-4.274,2.609-6.6,6.421-6.6a35.355,35.355,0,0,1,3.852.2v4.466H69c-2.074,0-2.476.986-2.476,2.432v3.189H71.48l-.646,5.008H66.521v14.8A20.011,20.011,0,0,0,81,185.89Zm0,0" transform="translate(1125.661 5179.11)" fill="#fff"></path>
    </g>
</svg>
