<?xml version="1.0" encoding="utf-8"?>
<svg xmlns="http://www.w3.org/2000/svg" width="40" height="40" viewBox="0 0 40 40">
    <g transform="translate(-1005.06 -5345)">
        <path d="M641.656,338.828A3.828,3.828,0,1,1,637.828,335a3.828,3.828,0,0,1,3.828,3.828Zm0,0" transform="translate(387.231 5026.172)" fill="#fff"></path>
        <path d="M580.852,266.13a3.8,3.8,0,0,0-2.18-2.18,6.355,6.355,0,0,0-2.132-.4c-1.211-.055-1.574-.067-4.641-.067s-3.43.012-4.641.067a6.359,6.359,0,0,0-2.132.4,3.8,3.8,0,0,0-2.18,2.18,6.356,6.356,0,0,0-.4,2.133c-.055,1.211-.067,1.574-.067,4.641s.012,3.43.067,4.641a6.354,6.354,0,0,0,.4,2.132,3.8,3.8,0,0,0,2.18,2.18,6.347,6.347,0,0,0,2.133.4c1.211.055,1.574.067,4.64.067s3.43-.012,4.641-.067a6.347,6.347,0,0,0,2.133-.4,3.8,3.8,0,0,0,2.18-2.18,6.363,6.363,0,0,0,.4-2.132c.055-1.211.067-1.574.067-4.641s-.012-3.43-.067-4.641a6.347,6.347,0,0,0-.4-2.133ZM571.9,278.8a5.9,5.9,0,1,1,5.9-5.9,5.9,5.9,0,0,1-5.9,5.9Zm6.13-10.649a1.378,1.378,0,1,1,1.378-1.378,1.378,1.378,0,0,1-1.378,1.378Zm0,0" transform="translate(453.16 5092.097)" fill="#fff"></path>
        <path d="M447,128a20,20,0,1,0,20,20,20,20,0,0,0-20-20Zm11.415,24.735a8.426,8.426,0,0,1-.534,2.788,5.872,5.872,0,0,1-3.359,3.359,8.432,8.432,0,0,1-2.788.534c-1.225.056-1.616.069-4.735.069s-3.51-.013-4.735-.069a8.431,8.431,0,0,1-2.787-.534,5.872,5.872,0,0,1-3.359-3.359,8.422,8.422,0,0,1-.534-2.787c-.056-1.225-.07-1.616-.07-4.735s.013-3.51.069-4.735a8.426,8.426,0,0,1,.533-2.788,5.877,5.877,0,0,1,3.359-3.359,8.433,8.433,0,0,1,2.788-.534c1.225-.056,1.616-.069,4.735-.069s3.51.013,4.735.07a8.435,8.435,0,0,1,2.788.533,5.874,5.874,0,0,1,3.359,3.359,8.425,8.425,0,0,1,.534,2.788c.056,1.225.069,1.616.069,4.735s-.013,3.51-.069,4.735Zm0,0" transform="translate(578.06 5217)" fill="#fff"></path>
    </g>
</svg>
