<?xml version="1.0" encoding="utf-8"?>
<svg xmlns="http://www.w3.org/2000/svg" width="40" height="40" viewBox="0 0 40 40">
    <g transform="translate(-1086 -5345)">
        <path d="M-328.887,271.847l8.61-4.959-8.61-4.959Zm0,0" transform="translate(1431.296 5098.112)" fill="#fff"></path>
        <path d="M-533,53.89a20,20,0,0,0-20,20,20,20,0,0,0,20,20,20,20,0,0,0,20-20,20,20,0,0,0-20-20Zm12.5,20.02a33.009,33.009,0,0,1-.515,6.012,3.131,3.131,0,0,1-2.2,2.2c-1.956.515-9.779.515-9.779.515s-7.8,0-9.779-.535a3.132,3.132,0,0,1-2.2-2.2,32.868,32.868,0,0,1-.515-6.012,32.991,32.991,0,0,1,.515-6.012,3.2,3.2,0,0,1,2.2-2.224c1.956-.515,9.779-.515,9.779-.515s7.823,0,9.779.535a3.132,3.132,0,0,1,2.2,2.2,31.325,31.325,0,0,1,.515,6.032Zm0,0" transform="translate(1639 5291.11)" fill="#fff"></path>
    </g>
</svg>
