<svg xmlns="http://www.w3.org/2000/svg" width="32" height="27" viewBox="0 0 32 27"><path d="M113,3.8H85a2.006,2.006,0,0,0-2,2v16a2.006,2.006,0,0,0,2,2h28a2.006,2.006,0,0,0,2-2V5.8A2.006,2.006,0,0,0,113,3.8ZM90,19.4h-.9a.789.789,0,0,1-.8-.8.736.736,0,0,1,.8-.8H90a.789.789,0,0,1,.8.8A.736.736,0,0,1,90,19.4Zm0-5h-.9a.789.789,0,0,1-.8-.8.736.736,0,0,1,.8-.8H90a.789.789,0,0,1,.8.8A.736.736,0,0,1,90,14.4Zm1.7-6.6L89.6,9.9a.725.725,0,0,1-1,0l-1-1a.778.778,0,0,1,1.1-1.1l.4.4,1.5-1.5a.778.778,0,0,1,1.1,1.1Zm16.2,11.6H94.4a.789.789,0,0,1-.8-.8.736.736,0,0,1,.8-.8h13.4a.789.789,0,0,1,.8.8A.713.713,0,0,1,107.9,19.4Zm0-5H94.4a.789.789,0,0,1-.8-.8.736.736,0,0,1,.8-.8h13.4a.789.789,0,0,1,.8.8A.713.713,0,0,1,107.9,14.4Zm0-5H94.4a.789.789,0,0,1-.8-.8.736.736,0,0,1,.8-.8h13.4a.789.789,0,0,1,.8.8A.713.713,0,0,1,107.9,9.4Z" transform="translate(-83 -3.8)" fill="#e52713"/><path d="M95.5,25.8l-2.5,5h12l-2.5-5Z" transform="translate(-83 -3.8)" fill="#e52713"/></svg>