<svg xmlns="http://www.w3.org/2000/svg" width="30" height="28" viewBox="0 0 30 28"><path d="M277,7.8a2.006,2.006,0,0,0-2-2h-4a2.006,2.006,0,0,0-2,2v6h8Z" transform="translate(-247 -3.8)" fill="#e52713"/><path d="M251,3.8a4.012,4.012,0,0,0-4,4v22a2.006,2.006,0,0,0,2,2h16a2.006,2.006,0,0,0,2-2V7.8a4.012,4.012,0,0,1,4-4H251Zm12,20.8H251a.789.789,0,0,1-.8-.8.736.736,0,0,1,.8-.8h12a.8.8,0,0,1,0,1.6Zm0-5H251a.789.789,0,0,1-.8-.8.736.736,0,0,1,.8-.8h12a.8.8,0,0,1,0,1.6Zm0-5H251a.789.789,0,0,1-.8-.8.736.736,0,0,1,.8-.8h12a.8.8,0,0,1,0,1.6Z" transform="translate(-247 -3.8)" fill="#e52713"/></svg>