<svg xmlns="http://www.w3.org/2000/svg" width="35.66" height="30.7" viewBox="0 0 35.66 30.7"><circle cx="3" cy="3" r="3" transform="translate(24.6 24.7)" fill="#e52713"/><circle cx="3" cy="3" r="3" transform="translate(12.3 24.7)" fill="#e52713"/><path d="M35.4,8.1a1.231,1.231,0,0,0-1-.5H10.9L9.5,1.5A1.188,1.188,0,0,0,8.3.5h-7A1.324,1.324,0,0,0,0,1.8,1.216,1.216,0,0,0,1.2,3h6L8.6,9.1h0l3,13.2a.758.758,0,0,0,.2.4.1.1,0,0,0,.1.1c0,.1.1.1.1.2.1,0,.1.1.2.1s.1.1.2.1.3.1.4.1h17a1.3,1.3,0,0,0,1.2-.8L35.6,9.3A1.228,1.228,0,0,0,35.4,8.1Z" transform="translate(0 -0.5)" fill="#e52713"/></svg>