<svg xmlns="http://www.w3.org/2000/svg" width="28" height="31.894" viewBox="0 0 28 31.894"><path d="M178.2,9.2h-.3l-6.6-1.8a4.363,4.363,0,0,1-3.4-5.1c.4-1.6,2-2.9,4.7-2.2,3,.8,4.3,3.4,5.2,5.2a13.7,13.7,0,0,0,.8,1.4,1.245,1.245,0,0,1,.8,1.5A1.108,1.108,0,0,1,178.2,9.2Zm.5-2.4Zm-.1,0Zm-7.4-4.3a.874.874,0,0,0-.9.5c-.2.6.3,1.6,1.6,2l3.3.9a5.655,5.655,0,0,0-3.3-3.3A5.639,5.639,0,0,0,171.2,2.5Z" transform="translate(-165 0.094)" fill="#e52713"/><path d="M179.8,9.2a1.2,1.2,0,0,1-1.2-.9,1.245,1.245,0,0,1,.8-1.5,5.766,5.766,0,0,0,.8-1.4c.9-1.7,2.2-4.4,5.2-5.2,2.6-.7,4.2.6,4.7,2.2.5,1.9-.6,4.3-3.4,5.1h0l-6.6,1.8h0C180.1,9.2,179.9,9.2,179.8,9.2Zm-.3-2.4Zm6.9-.6Zm.5-3.7c-.3,0-.6.1-.8.1a5.655,5.655,0,0,0-3.3,3.3l3.3-.9a1.815,1.815,0,0,0,1.6-2A.749.749,0,0,0,186.9,2.5Z" transform="translate(-165 0.094)" fill="#e52713"/><path d="M183,31.8h6a2.094,2.094,0,0,0,2-2.1V15.8h-8Z" transform="translate(-165 0.094)" fill="#e52713"/><path d="M169,31.8h6v-16h-8V29.7A2.03,2.03,0,0,0,169,31.8Z" transform="translate(-165 0.094)" fill="#e52713"/><path d="M177.1,7.8H167a2.006,2.006,0,0,0-2,2v2a2.006,2.006,0,0,0,2,2h24a2.006,2.006,0,0,0,2-2v-2a2.006,2.006,0,0,0-2-2Z" transform="translate(-165 0.094)" fill="#e52713"/></svg>